<svg width="182" height="201" viewBox="0 0 182 201" fill="none" xmlns="http://www.w3.org/2000/svg">
<path d="M150.049 50.9534C141.857 53.8928 134.626 59.0181 129.138 65.7741C120.193 41.8132 102.181 5.90647 87.0355 1.01947C85.4291 0.421435 83.7024 0.21852 82.0011 0.427841C80.2999 0.637162 78.6739 1.25258 77.2603 2.2222C68.52 8.29935 63.9261 25.94 71.7607 58.0407C48.6506 22.7689 41.6207 23.3917 38.3686 23.5943C36.808 23.7411 35.3254 24.3451 34.1065 25.3307C32.8875 26.3164 31.9865 27.6398 31.5162 29.1353C29.7213 34.1617 26.5593 49.6475 39.838 81.3613C25.5863 64.8072 21.4612 62.8811 16.9445 63.4694C15.5034 63.6707 14.1434 64.2578 13.0085 65.1686C11.8736 66.0794 11.0059 67.28 10.4972 68.6435C7.23398 76.2038 9.13783 94.4013 23.2544 120.622C18.8698 117.344 13.5154 115.626 8.04228 115.74C6.58669 115.961 5.20931 116.542 4.03539 117.43C2.86147 118.319 1.92824 119.487 1.32059 120.828C-2.81423 130.13 9.37522 154.315 23.3188 170.259C34.6263 183.354 56.7483 203.089 86.3817 200.71C90.5309 200.371 94.6395 199.647 98.6543 198.546C100.046 198.157 101.227 197.231 101.936 195.972C102.646 194.712 102.826 193.222 102.437 191.83C102.048 190.438 101.122 189.257 99.8626 188.548C98.6033 187.838 97.1138 187.658 95.7218 188.047C71.4819 194.825 51.8326 182.776 39.6199 171.525C21.3745 154.681 12.2539 133.427 11.2956 126.799C14.9324 127.953 25.5443 133.112 47.2896 156.798C48.217 157.897 49.5431 158.583 50.9763 158.705C52.4094 158.827 53.8322 158.374 54.9316 157.447C56.031 156.519 56.717 155.193 56.8386 153.76C56.9602 152.326 56.5076 150.903 55.5802 149.804C24.4872 109.948 19.7269 84.6979 19.9427 76.0363C28.7654 83.6881 51.5696 112.547 68.7593 134.358C69.6102 135.479 70.8683 136.219 72.2612 136.419C73.6541 136.619 75.0695 136.261 76.2007 135.424C77.3643 134.624 78.1639 133.395 78.4252 132.007C78.6864 130.618 78.3881 129.183 77.5952 128.014C40.912 71.9369 39.8858 45.2003 41.0273 36.0965C46.2089 40.5628 60.2973 56.4362 91.7966 112.495C92.4721 113.727 93.6056 114.645 94.9519 115.048C96.2982 115.452 97.7492 115.309 98.9911 114.651C100.26 114.033 101.234 112.939 101.7 111.607C102.166 110.274 102.087 108.812 101.479 107.537C69.7965 38.9869 79.1706 14.1491 83.2714 11.0862C88.8692 10.6368 106.756 36.346 119.402 70.9028C120.159 73.0408 120.92 75.1282 121.618 77.1622C120.437 79.6906 119.57 82.3545 119.037 85.0941C115.292 105.083 113.516 149.91 124.778 161.295C125.904 162.494 127.309 163.394 128.868 163.917C130.427 164.44 132.091 164.568 133.711 164.29C135.758 163.899 137.693 163.059 139.375 161.829C141.057 160.6 142.445 159.012 143.439 157.18C151.873 142.5 143.464 108.029 133.387 78.0901C137.992 70.3338 145.068 64.3488 153.48 61.0946C155.275 60.3654 157.234 60.1378 159.149 60.4362C161.063 60.7346 162.86 61.5477 164.348 62.7887C169.11 67.3388 178.215 85.0669 160.276 151.59C159.994 152.953 160.244 154.373 160.976 155.558C161.708 156.743 162.865 157.602 164.21 157.961C165.555 158.319 166.987 158.149 168.21 157.485C169.434 156.821 170.357 155.714 170.791 154.391C185.09 101.36 185.315 67.919 171.868 54.9368C168.96 52.312 165.377 50.5503 161.523 49.8495C157.669 49.1488 153.696 49.5368 150.051 50.97L150.049 50.9534ZM134.011 151.876C133.67 152.624 133.071 153.224 132.324 153.566C127.957 149.143 125.702 121.051 128.212 97.6584C139.673 136.825 135.81 148.889 134.011 151.876Z" fill="url(#paint0_linear_15_124)"/>
<defs>
<linearGradient id="paint0_linear_15_124" x1="-0.998106" y1="107.403" x2="182.487" y2="93.1759" gradientUnits="userSpaceOnUse">
<stop stop-color="#DA4C50"/>
<stop offset="1" stop-color="#E76F57"/>
</linearGradient>
</defs>
</svg>
